<?xml version="1.0" encoding="UTF-8" standalone="no"?><!-- Generator: Gravit.io --><svg xmlns="http://www.w3.org/2000/svg" xmlns:xlink="http://www.w3.org/1999/xlink" style="isolation:isolate" viewBox="0 0 500 500" width="500pt" height="500pt"><defs><clipPath id="_clipPath_Bh2HYERJpOf8M7jsLvAK9V4Weby4JYbK"><rect width="500" height="500"/></clipPath></defs><g clip-path="url(#_clipPath_Bh2HYERJpOf8M7jsLvAK9V4Weby4JYbK)"><g><path d=" M -52.665 10 L 516 10.411 L 515.665 490 L 375.424 489.589 Q 375.474 452.541 358.354 436.575 Q 352.496 430.616 343.292 428.767 Q 332.157 426.411 324.548 419.726 Q 314.37 411.264 300.115 407.808 Q 290.554 405.164 284.384 398.356 Q 282.02 393.45 275.346 393.836 Q 272.111 397.671 264.636 396.301 Q 248.707 386.681 237.859 370.822 L 238.864 372.877 Q 243.449 382.863 250.578 389.726 Q 257.723 396.98 268.987 399.178 Q 264.493 419.14 253.256 430.822 Q 238.878 442.346 219.785 448.082 Q 205.291 456.998 182.968 456.301 Q 143.945 452.845 117.031 434.521 Q 106.742 420.851 101.299 401.233 Q 96.011 396.63 85.903 397.945 Q 58.097 387.664 33 399.589 Q 10.356 404.639 0.218 418.493 Q 2.717 463.891 -0.451 490 L -53 489.589 L -52.665 10 Z " fill="rgb(253,253,253)"/><path d=" M 114.018 11.644 L 219.116 11.644 L 245.223 11.644 Q 256.561 9.64 260.619 16.575 Q 273.746 25.527 283.045 39.178 Q 291.53 50.952 293.755 70.411 Q 292.976 86.984 301.454 92.192 L 306.474 95.89 L 305.47 96.301 C 302.127 93.273 298.147 91.488 294.09 90.548 L 294.09 90.548 L 293.755 91.781 C 298.832 110.641 314.981 123.071 329.904 127.945 L 329.904 127.945 L 329.569 129.178 C 327.276 131.235 324.302 131.718 321.536 131.644 L 321.536 131.644 L 304.801 125.068 L 304.466 126.301 Q 312.539 139.814 311.829 164.11 Q 310.842 174.815 306.809 181.781 Q 307.811 164.934 304.801 153.014 Q 304.548 170.375 301.119 183.836 Q 296.484 197.05 297.772 217.534 L 299.111 222.466 L 298.106 222.877 C 297.872 219.705 295.853 218.537 293.421 218.767 L 293.421 218.767 L 290.074 231.096 L 289.739 227.397 L 290.408 224.11 L 291.747 208.493 L 289.404 207.26 L 276.685 269.726 L 276.351 264.384 C 278.633 262.269 277.951 257.822 277.355 254.932 L 277.355 254.932 L 279.028 236.438 L 278.024 236.027 Q 267.488 249.392 267.648 275.89 Q 269.991 279.589 269.656 286.575 L 267.983 290.274 L 264.301 286.575 Q 264.171 276.05 261.624 268.493 Q 262.628 263.562 260.619 262.329 Q 251.425 277.751 252.252 305.479 L 252.921 309.589 L 251.917 310 C 250.88 303.682 248.796 297.541 245.223 292.74 L 245.223 292.74 L 244.554 327.26 L 241.876 324.795 L 241.541 326.027 C 243.266 327.375 242.657 330.647 242.211 332.603 L 242.211 332.603 L 241.541 332.603 L 237.859 319.041 L 236.855 319.452 Q 233.233 326.922 234.178 340 Q 237.692 343.493 234.847 354.795 L 234.178 354.795 L 232.504 332.192 Q 233.809 325.658 231.5 323.562 Q 232.881 315.702 230.496 312.466 Q 208.35 342.397 170.918 353.562 Q 153.172 348.227 145.146 330.959 L 144.142 328.904 Q 144.59 368.495 126.737 385.616 Q 117.876 394.874 105.316 399.589 L 105.985 397.945 Q 121.208 389.513 131.758 375.342 Q 141.987 363.244 141.129 337.534 L 137.448 324.795 L 136.444 325.205 L 130.754 335.479 L 129.08 326.849 C 132.489 325.618 131.065 319.131 130.72 316.206 C 129.701 307.588 128.197 299.132 125.398 291.096 L 125.398 291.096 L 123.725 291.507 C 124.425 302.936 126.029 314.351 129.08 325.205 L 129.08 325.205 L 127.741 324.384 L 118.704 299.315 L 112.01 305.89 L 111.006 303.836 L 117.7 289.863 L 115.357 288.63 L 112.679 294.384 L 107.324 268.082 C 106.418 268.588 105.926 269.412 106.989 270.137 L 106.989 270.137 L 107.659 292.329 L 106.989 292.329 L 102.638 265.616 L 100.295 266.849 L 93.936 284.521 L 93.601 283.288 C 95.653 276.524 95.596 268.989 94.94 261.918 L 94.94 261.918 L 91.258 253.288 L 90.589 261.507 C 88.062 256.905 86.946 251.36 86.572 245.89 L 86.572 245.89 L 85.568 246.301 L 73.184 265.616 L 70.841 264.384 Q 79.605 251.309 79.544 227.397 Q 78.396 218.121 75.192 211.37 Q 75.495 224.892 69.168 230.274 L 67.829 231.096 L 67.494 229.863 C 71.188 219.937 71.535 208.517 70.841 197.808 L 70.841 197.808 L 68.498 182.603 C 63.663 194.576 62.884 208.506 63.478 221.644 L 63.478 221.644 L 64.147 225.753 L 63.478 225.753 C 57.333 208.442 56.303 188.908 57.118 170.274 L 57.118 170.274 L 41.722 180.137 L 41.387 178.904 L 50.759 168.219 L 55.445 160.822 L 53.771 160.411 L 52.432 161.233 L 52.098 160 L 50.759 131.644 C 48.222 129.233 35.904 139.954 33 140 C 27.287 140.09 38.521 110.956 33 109 L 57.118 90.548 L 73.184 55.205 Q 74.678 48.41 85.234 39.178 Q 75.505 49.836 93.936 31.37 L 114.018 11.644 Z " fill="rgb(1,1,1)"/><path d=" M 277.355 46.986 C 285.489 54.291 289.63 65.839 291.078 77.808 L 291.078 77.808 L 289.404 78.219 L 280.032 55.205 C 277.681 53.297 276.152 50.406 277.355 46.986 L 277.355 46.986 Z  M 85.234 49.452 L 86.907 49.863 L 75.862 81.507 L 73.519 80.274 L 85.234 49.452 Z  M 271.999 185.068 C 279.79 196.388 277.365 217.33 267.983 226.164 L 267.983 226.164 L 265.975 227.808 L 265.64 226.575 C 273.037 215.095 273.254 198.931 271.999 185.068 L 271.999 185.068 Z  M 225.81 190.822 L 238.194 219.178 L 210.414 219.589 L 209.075 219.589 C 207.662 220.062 205.322 220.676 204.389 218.767 L 204.389 218.767 L 204.054 220 C 210.197 227.893 220.383 227.614 228.488 226.164 L 228.488 226.164 L 240.537 222.055 L 240.872 223.288 L 230.161 256.164 L 233.174 253.288 L 251.248 234.384 Q 253.089 235.411 251.582 236.438 Q 240.053 285.571 212.422 314.932 Q 203.178 330.706 183.637 333.836 Q 152.277 323.847 137.113 293.973 Q 127.675 280.081 123.055 260.274 L 124.729 259.863 L 132.092 263.151 L 132.427 257.808 C 129.705 247.479 128.611 236.575 128.411 225.753 L 128.411 225.753 L 129.415 226.164 C 141.246 228.944 158.196 231.17 165.898 216.712 L 165.898 216.712 L 167.571 213.014 L 167.906 215.068 L 166.567 222.466 L 163.889 244.658 L 164.894 245.068 L 182.298 200.685 L 183.302 201.096 L 179.286 224.932 L 180.625 224.11 L 196.356 194.11 L 198.029 194.521 C 198.195 197.157 197.919 200.253 196.021 201.918 L 196.021 201.918 L 189.327 223.288 L 192.339 220.411 L 209.075 202.329 L 216.438 195.753 L 216.104 196.986 Q 217.233 207.003 213.091 210.548 Q 210.246 213.63 205.393 214.247 Q 206.481 216.61 210.079 215.89 L 210.414 218.767 L 223.467 213.425 L 217.108 213.014 L 216.104 213.425 C 218.276 205.291 221.455 197.532 225.81 190.822 L 225.81 190.822 Z  M 152.175 192.466 L 152.509 220.822 L 142.134 221.233 L 142.134 220.411 L 145.815 216.712 C 143.684 214.604 144.008 210.58 144.476 207.671 L 144.476 207.671 L 152.175 192.466 Z  M 157.53 194.11 L 159.873 196.164 C 164.603 202.168 163.139 214.624 158.869 220.411 L 158.869 220.411 L 157.195 219.178 L 155.187 196.164 L 157.53 194.11 Z " fill-rule="evenodd" fill="rgb(253,253,253)"/><path d=" M 176.274 295.205 C 184.87 294.325 194.004 294.666 202.046 298.904 L 202.046 298.904 L 168.241 299.315 L 167.906 297.26 C 170.2 294.949 173.467 294.843 176.274 295.205 L 176.274 295.205 Z  M 174.265 311.644 L 194.682 312.055 C 190.168 316.366 182.763 316.1 177.508 314.277 C 176.271 313.847 174.933 313.078 174.265 311.644 L 174.265 311.644 Z  M 237.859 370.822 L 253.925 388.082 Q 258.559 397.187 271.33 396.301 Q 273.45 393.151 278.694 393.836 Q 286.894 403.493 299.78 407.397 Q 313.125 411.148 323.209 418.904 Q 330.99 426.2 342.957 428.356 Q 358.186 432.671 366.052 446.027 Q 375.41 462.072 375.424 489.589 L 0.218 490 L -0.116 488.767 Q 3.454 457.809 18.292 440.685 Q 40.72 423.016 67.159 410.274 Q 75.262 397.62 93.936 397.945 Q 99.124 398.973 102.304 402.466 Q 107.581 424.753 120.043 438.219 Q 150.385 454.8 193.009 456.301 Q 218.928 452.783 237.19 439.863 Q 251.435 435.983 258.946 423.836 Q 265.752 413.7 268.987 399.178 Q 251.553 395.104 242.88 380.274 L 237.859 370.822 Z  M 258.611 409.452 L 259.615 409.863 C 247.205 419.027 231.901 420.369 217.777 419.315 L 217.777 419.315 L 217.777 418.493 C 231.557 416.873 245.269 414.023 258.611 409.452 L 258.611 409.452 Z  M 114.688 414.384 Q 124.709 418.517 139.456 416.849 Q 157.826 415.252 167.906 423.836 Q 173.583 432.071 186.649 431.233 Q 183.804 434.315 176.943 432.466 Q 164.264 420.088 141.464 420.137 Q 123.756 421.156 114.688 414.384 Z " fill-rule="evenodd" fill="rgb(1,1,1)"/></g><g clip-path="url(#_clipPath_0JvCF6J8vPaKXNykf0HEjRaOD6rn3RyW)"><text transform="matrix(1,0,0,1,135,141.625)" style="font-family:'Open Sans';font-weight:400;font-size:32px;font-style:normal;fill:#000000;stroke:#E8E8E8;stroke-width:5;">Su texto</text></g><defs><clipPath id="_clipPath_0JvCF6J8vPaKXNykf0HEjRaOD6rn3RyW"><rect x="0" y="0" width="125" height="43.578" transform="matrix(1,0,0,1,120,92.422)"/></clipPath></defs></g></svg>